<?xml version="1.0" encoding="utf-8"?>
<!-- Generator: Adobe Illustrator 22.0.1, SVG Export Plug-In . SVG Version: 6.00 Build 0)  -->
<svg version="1.1" id="Layer_1" xmlns="http://www.w3.org/2000/svg" xmlns:xlink="http://www.w3.org/1999/xlink" x="0px" y="0px"
	 viewBox="0 0 45 45" style="enable-background:new 0 0 45 45;" xml:space="preserve">
<style type="text/css">
	.st0{fill:url(#Path_3_1_);}
	.st1{fill:#111625;}
</style>
<linearGradient id="Path_3_1_" gradientUnits="userSpaceOnUse" x1="-645.3334" y1="398.4778" x2="-644.3334" y2="398.4778" gradientTransform="matrix(45.0002 0 0 -45 29040.1504 17954)">
	<stop  offset="0" style="stop-color:#EE0979"/>
	<stop  offset="1" style="stop-color:#FF6A00"/>
</linearGradient>
<path id="Path_3" class="st0" d="M22.5,0C29,0,35.1,2.8,39.4,7.7C43,11.8,45,17,45,22.5C45,34.9,34.9,45,22.5,45S0,34.9,0,22.5
	S10.1,0,22.5,0z"/>
<path id="_ionicons_svg_md-wifi" class="st1" d="M22.5,20.7c-1.5,0-2.7,1.2-2.7,2.7c0,1.5,1.2,2.7,2.7,2.7c1.5,0,2.7-1.2,2.7-2.7
	C25.2,21.9,24,20.7,22.5,20.7z M30.6,23.4c0-4.5-3.6-8.2-8.1-8.2c-4.5,0-8.2,3.6-8.2,8.1c0,2.9,1.5,5.6,4.1,7.1l1.4-2.3
	c-1.7-0.9-2.7-2.7-2.7-4.6c0-3,2.5-5.4,5.5-5.3c2.9,0,5.3,2.4,5.3,5.3c0,1.9-1,3.7-2.7,4.6l1.3,2.3C29.1,28.9,30.6,26.3,30.6,23.4z
	 M22.5,10C15.1,10,9,16,9,23.4c0,4.8,2.6,9.2,6.8,11.6l1.4-2.3c-3.3-1.9-5.4-5.4-5.4-9.3c0-6,4.9-10.8,10.8-10.8
	c6,0,10.8,4.9,10.8,10.8c0,3.8-2.1,7.4-5.4,9.2l1.4,2.4c4.2-2.4,6.8-6.8,6.8-11.6C36,16,29.9,10,22.5,10z"/>
</svg>
